<?xml version="1.0" encoding="UTF-8" standalone="no"?>
<svg
   id="Layer_1"
   data-name="Layer 1"
   viewBox="0 0 24 24"
   version="1.1"
   sodipodi:docname="user.svg"
   inkscape:version="1.3.2 (091e20e, 2023-11-25, custom)"
   xmlns:inkscape="http://www.inkscape.org/namespaces/inkscape"
   xmlns:sodipodi="http://sodipodi.sourceforge.net/DTD/sodipodi-0.dtd"
   xmlns="http://www.w3.org/2000/svg"
   xmlns:svg="http://www.w3.org/2000/svg">
  <defs
     id="defs2" />
  <sodipodi:namedview
     id="namedview2"
     pagecolor="#ffffff"
     bordercolor="#000000"
     borderopacity="0.25"
     inkscape:showpageshadow="2"
     inkscape:pageopacity="0.0"
     inkscape:pagecheckerboard="0"
     inkscape:deskcolor="#d1d1d1"
     inkscape:zoom="33.875"
     inkscape:cx="11.98524"
     inkscape:cy="12"
     inkscape:window-width="1920"
     inkscape:window-height="1009"
     inkscape:window-x="-8"
     inkscape:window-y="-8"
     inkscape:window-maximized="1"
     inkscape:current-layer="Layer_1" />
  <path
     d="M12.006,12.309c3.611-.021,5.555-1.971,5.622-5.671-.062-3.56-2.111-5.614-5.634-5.637-3.561,.022-5.622,2.122-5.622,5.672s2.062,5.615,5.634,5.636Z"
     id="path1"
     style="fill:#f0f0f0;fill-opacity:1" />
  <path
     d="M11.994,13.661c-5.328,.034-8.195,2.911-8.291,8.322-.004,.268,.099,.527,.287,.718s.445,.299,.713,.299h14.595c.268,0,.525-.108,.713-.299,.188-.191,.291-.45,.287-.718-.092-5.333-3.036-8.288-8.304-8.322Z"
     id="path2"
     style="fill:#f0f0f0;fill-opacity:1" />
</svg>
